<?xml version='1.0' encoding='utf8'?>
<svg class="toyplot-canvas-Canvas" xmlns:toyplot="http://www.sandia.gov/toyplot" xmlns:xlink="http://www.w3.org/1999/xlink" xmlns="http://www.w3.org/2000/svg" width="1000.0px" height="345.0px" viewBox="0 0 1000.0 345.0" preserveAspectRatio="xMidYMid meet" style="background-color:transparent;border-color:#292724;border-style:none;border-width:1.0;fill:rgb(16.1%,15.3%,14.1%);fill-opacity:1.0;font-family:Helvetica;font-size:12px;opacity:1.0;stroke:rgb(16.1%,15.3%,14.1%);stroke-opacity:1.0;stroke-width:1.0" id="t34a3bcd747fb4bbd84b613c93fe3d346"><g class="toyplot-coordinates-Cartesian" id="tda6a7e89d2fa4013a2434f44b1d62f9d"><clipPath id="tc9df2f9331874aebb8bbc743d640eb70"><rect x="30.0" y="30.0" width="940.0" height="285.0" /></clipPath><g clip-path="url(#tc9df2f9331874aebb8bbc743d640eb70)"><g class="toytree-mark-Toytree" id="t6a6b8e92c19a4fa6aab9c5d5664af40c"><g class="toytree-Edges" style="fill:none;stroke:rgb(14.9%,14.9%,14.9%);stroke-linecap:round;stroke-opacity:1;stroke-width:2"><path d="M 51.5 115.8 L 51.5 77.6 L 323.2 77.6" id="24,23" /><path d="M 51.5 115.8 L 51.5 153.9 L 345.4 153.9" id="24,22" /><path d="M 323.2 77.6 L 323.2 93.8 L 444.9 93.8" id="23,21" /><path d="M 345.4 153.9 L 345.4 172.4 L 396.9 172.4" id="22,20" /><path d="M 444.9 93.8 L 444.9 107.7 L 617.6 107.7" id="21,19" /><path d="M 396.9 172.4 L 396.9 190.7 L 493.3 190.7" id="20,18" /><path d="M 493.3 190.7 L 493.3 208.9 L 577.1 208.9" id="18,17" /><path d="M 577.1 208.9 L 577.1 226.9 L 631.2 226.9" id="17,16" /><path d="M 631.2 226.9 L 631.2 244.2 L 654.5 244.2" id="16,15" /><path d="M 654.5 244.2 L 654.5 260.4 L 669.9 260.4" id="15,14" /><path d="M 669.9 260.4 L 669.9 274.3 L 692.4 274.3" id="14,13" /><path d="M 323.2 77.6 L 323.2 61.4 L 726.7 61.4" id="23,12" /><path d="M 444.9 93.8 L 444.9 79.9 L 726.7 79.9" id="21,11" /><path d="M 617.6 107.7 L 617.6 98.4 L 726.7 98.4" id="19,10" /><path d="M 617.6 107.7 L 617.6 117.0 L 726.7 117.0" id="19,9" /><path d="M 345.4 153.9 L 345.4 135.5 L 726.7 135.5" id="22,8" /><path d="M 396.9 172.4 L 396.9 154.0 L 726.7 154.0" id="20,7" /><path d="M 493.3 190.7 L 493.3 172.5 L 726.7 172.5" id="18,6" /><path d="M 577.1 208.9 L 577.1 191.0 L 726.7 191.0" id="17,5" /><path d="M 631.2 226.9 L 631.2 209.5 L 726.7 209.5" id="16,4" /><path d="M 654.5 244.2 L 654.5 228.0 L 726.7 228.0" id="15,3" /><path d="M 669.9 260.4 L 669.9 246.6 L 726.7 246.6" id="14,2" /><path d="M 692.4 274.3 L 692.4 265.1 L 726.7 265.1" id="13,1" /><path d="M 692.4 274.3 L 692.4 283.6 L 726.7 283.6" id="13,0" /></g><g class="toytree-AlignEdges" style="stroke:rgb(66.3%,66.3%,66.3%);stroke-dasharray:2, 4;stroke-linecap:round;stroke-opacity:1.0;stroke-width:2"><path d="M 726.7 283.6 L 726.7 283.6" /><path d="M 726.7 265.1 L 726.7 265.1" /><path d="M 726.7 246.6 L 726.7 246.6" /><path d="M 726.7 228.0 L 726.7 228.0" /><path d="M 726.7 209.5 L 726.7 209.5" /><path d="M 726.7 191.0 L 726.7 191.0" /><path d="M 726.7 172.5 L 726.7 172.5" /><path d="M 726.7 154.0 L 726.7 154.0" /><path d="M 726.7 135.5 L 726.7 135.5" /><path d="M 726.7 117.0 L 726.7 117.0" /><path d="M 726.7 98.4 L 726.7 98.4" /><path d="M 726.7 79.9 L 726.7 79.9" /><path d="M 726.7 61.4 L 726.7 61.4" /></g><g class="toytree-TipLabels" style="fill:rgb(14.9%,14.9%,14.9%);fill-opacity:1.0;font-family:helvetica;font-size:11px;font-weight:normal;stroke:none;white-space:pre"><g transform="translate(726.71,283.58)rotate(0)"><a href="https://glottolog.org/resource/languoid/id/teiw1235#############"><text x="15.00" y="2.81" style="" fill="#0000ff">Tw - Teiwa [teiw1235#############]</text></a></g><g transform="translate(726.71,265.06)rotate(0)"><a href="https://glottolog.org/resource/languoid/id/nede1245#############"><text x="15.00" y="2.81" style="" fill="#0000ff">Nd - Nedebang [nede1245#############]</text></a></g><g transform="translate(726.71,246.55)rotate(0)"><a href="https://glottolog.org/resource/languoid/id/kaer1234#############"><text x="15.00" y="2.81" style="" fill="#0000ff">Ke - Kaera [kaer1234#############]</text></a></g><g transform="translate(726.71,228.04)rotate(0)"><a href="https://glottolog.org/resource/languoid/id/lamm1241#############"><text x="15.00" y="2.81" style="" fill="#0000ff">WP - Western Pantar [lamm1241#############]</text></a></g><g transform="translate(726.71,209.53)rotate(0)"><a href="https://glottolog.org/resource/languoid/id/alor1249#############"><text x="15.00" y="2.81" style="" fill="#0000ff">pAP - Alor-Pantar [alor1249#############]</text></a></g><g transform="translate(726.71,191.01)rotate(0)"><a href="https://glottolog.org/resource/languoid/id/blag1240#############"><text x="15.00" y="2.81" style="" fill="#0000ff">Bl - Blagar [blag1240#############]</text></a></g><g transform="translate(726.71,172.50)rotate(0)"><a href="https://glottolog.org/resource/languoid/id/adan1251#############"><text x="15.00" y="2.81" style="" fill="#0000ff">Ad - Adang [adan1251#############]</text></a></g><g transform="translate(726.71,153.99)rotate(0)"><a href="https://glottolog.org/resource/languoid/id/kelo1247#############"><text x="15.00" y="2.81" style="" fill="#0000ff">Kl - Klon [kelo1247#############]</text></a></g><g transform="translate(726.71,135.47)rotate(0)"><a href="https://glottolog.org/resource/languoid/id/kuii1253#############"><text x="15.00" y="2.81" style="" fill="#0000ff">Ki - Kui (Indonesia) [kuii1253#############]</text></a></g><g transform="translate(726.71,116.96)rotate(0)"><a href="https://glottolog.org/resource/languoid/id/wers1238#############"><text x="15.00" y="2.81" style="" fill="#0000ff">We - Wersing [wers1238#############]</text></a></g><g transform="translate(726.71,98.45)rotate(0)"><a href="https://glottolog.org/resource/languoid/id/sawi1256#############"><text x="15.00" y="2.81" style="" fill="#0000ff">Sw - Sawila [sawi1256#############]</text></a></g><g transform="translate(726.71,79.94)rotate(0)"><a href="https://glottolog.org/resource/languoid/id/kama1365#############"><text x="15.00" y="2.81" style="" fill="#0000ff">Km - Kamang [kama1365#############]</text></a></g><g transform="translate(726.71,61.42)rotate(0)"><a href="https://glottolog.org/resource/languoid/id/abui1241#############"><text x="15.00" y="2.81" style="" fill="#0000ff">Ab - Abui [abui1241#############]</text></a></g></g></g></g><g class="toyplot-coordinates-Axis" id="t5882d840f5ce40eca43418de12c6c473" transform="translate(50.0,295.0)translate(0,20.0)"><line x1="1.5004588903439184" y1="0" x2="676.7069595451276" y2="0" style="" /><g><line x1="676.7069595451276" y1="0" x2="676.7069595451276" y2="-5" style="" /><line x1="601.6840150279294" y1="0" x2="601.6840150279294" y2="-5" style="" /><line x1="526.6610705107312" y1="0" x2="526.6610705107312" y2="-5" style="" /><line x1="451.63812599353304" y1="0" x2="451.63812599353304" y2="-5" style="" /><line x1="376.61518147633484" y1="0" x2="376.61518147633484" y2="-5" style="" /><line x1="301.59223695913664" y1="0" x2="301.59223695913664" y2="-5" style="" /><line x1="226.56929244193844" y1="0" x2="226.56929244193844" y2="-5" style="" /><line x1="151.5463479247402" y1="0" x2="151.5463479247402" y2="-5" style="" /><line x1="76.52340340754205" y1="0" x2="76.52340340754205" y2="-5" style="" /><line x1="1.5004588903439184" y1="0" x2="1.5004588903439184" y2="-5" style="" /></g><g><g transform="translate(676.7069595451276,6)"><text x="-2.78" y="8.555" style="fill:rgb(16.1%,15.3%,14.1%);fill-opacity:1.0;font-family:helvetica;font-size:10.0px;font-weight:normal;stroke:none;vertical-align:baseline;white-space:pre">0</text></g><g transform="translate(601.6840150279294,6)"><text x="-11.12" y="8.555" style="fill:rgb(16.1%,15.3%,14.1%);fill-opacity:1.0;font-family:helvetica;font-size:10.0px;font-weight:normal;stroke:none;vertical-align:baseline;white-space:pre">2711</text></g><g transform="translate(526.6610705107312,6)"><text x="-11.12" y="8.555" style="fill:rgb(16.1%,15.3%,14.1%);fill-opacity:1.0;font-family:helvetica;font-size:10.0px;font-weight:normal;stroke:none;vertical-align:baseline;white-space:pre">5423</text></g><g transform="translate(451.63812599353304,6)"><text x="-11.12" y="8.555" style="fill:rgb(16.1%,15.3%,14.1%);fill-opacity:1.0;font-family:helvetica;font-size:10.0px;font-weight:normal;stroke:none;vertical-align:baseline;white-space:pre">8134</text></g><g transform="translate(376.61518147633484,6)"><text x="-13.9" y="8.555" style="fill:rgb(16.1%,15.3%,14.1%);fill-opacity:1.0;font-family:helvetica;font-size:10.0px;font-weight:normal;stroke:none;vertical-align:baseline;white-space:pre">10845</text></g><g transform="translate(301.59223695913664,6)"><text x="-13.9" y="8.555" style="fill:rgb(16.1%,15.3%,14.1%);fill-opacity:1.0;font-family:helvetica;font-size:10.0px;font-weight:normal;stroke:none;vertical-align:baseline;white-space:pre">13557</text></g><g transform="translate(226.56929244193844,6)"><text x="-13.9" y="8.555" style="fill:rgb(16.1%,15.3%,14.1%);fill-opacity:1.0;font-family:helvetica;font-size:10.0px;font-weight:normal;stroke:none;vertical-align:baseline;white-space:pre">16268</text></g><g transform="translate(151.5463479247402,6)"><text x="-13.9" y="8.555" style="fill:rgb(16.1%,15.3%,14.1%);fill-opacity:1.0;font-family:helvetica;font-size:10.0px;font-weight:normal;stroke:none;vertical-align:baseline;white-space:pre">18979</text></g><g transform="translate(76.52340340754205,6)"><text x="-13.9" y="8.555" style="fill:rgb(16.1%,15.3%,14.1%);fill-opacity:1.0;font-family:helvetica;font-size:10.0px;font-weight:normal;stroke:none;vertical-align:baseline;white-space:pre">21690</text></g><g transform="translate(1.5004588903439184,6)"><text x="-13.9" y="8.555" style="fill:rgb(16.1%,15.3%,14.1%);fill-opacity:1.0;font-family:helvetica;font-size:10.0px;font-weight:normal;stroke:none;vertical-align:baseline;white-space:pre">24402</text></g></g><g class="toyplot-coordinates-Axis-coordinates" style="visibility:hidden" transform=""><line x1="0" x2="0" y1="-3.0" y2="4.5" style="stroke:rgb(43.9%,50.2%,56.5%);stroke-opacity:1.0;stroke-width:1.0" /><text x="0" y="-6" style="alignment-baseline:alphabetic;fill:rgb(43.9%,50.2%,56.5%);fill-opacity:1.0;font-size:10px;font-weight:normal;stroke:none;text-anchor:middle" /></g></g><g transform="translate(500.0,42.0)"><text x="-206.57000000000002" y="-4.823" style="fill:rgb(16.1%,15.3%,14.1%);fill-opacity:1.0;font-family:helvetica;font-size:14.0px;font-weight:bold;stroke:none;vertical-align:baseline;white-space:pre">Summary tree of a Bayesian analysis of the Alor-Pantar family</text></g></g></svg>